<svg width="184" height="257" xmlns="http://www.w3.org/2000/svg" xmlns:xlink="http://www.w3.org/1999/xlink" xml:space="preserve" overflow="hidden"><g transform="translate(-132 -297)"><g><path d="M224.805 551 137 378.473 175.126 304.264 274.483 304 312 378.85 224.805 551Z" stroke="#496AB1" stroke-width="2.29167" stroke-linecap="butt" stroke-linejoin="miter" stroke-miterlimit="8" stroke-opacity="1" fill="#628FEE" fill-rule="evenodd" fill-opacity="1"/><g><g><g><path d="M135.588 45.2637 133.752 45.2637C132.534 45.2637 131.548 46.2494 131.548 47.4675L131.548 54.3488C129.176 55.1583 125.199 56.1293 118.557 57.0294 108.138 58.4395 94.4936 59.216 80.1465 59.216 65.7967 59.216 52.1562 58.4407 41.7391 57.0294 35.0948 56.1281 31.1191 55.1583 28.7454 54.3488L28.7454 47.4675C28.7454 46.2507 27.7585 45.2637 26.5416 45.2637L24.706 45.2637C23.4892 45.2637 22.5035 46.2494 22.5035 47.4675L22.5035 112.824C22.5035 114.042 23.4892 115.028 24.706 115.028L26.5416 115.028C27.7585 115.028 28.7454 114.042 28.7454 112.824L28.7454 100.707 28.7711 100.707C29.5623 95.6136 52.1706 91.5281 79.9612 91.5281 107.752 91.5281 130.356 95.614 131.148 100.707L131.552 100.707 131.552 112.824C131.552 114.042 132.538 115.028 133.756 115.028L135.591 115.028C136.809 115.028 137.795 114.042 137.795 112.824L137.795 47.4675C137.791 46.2519 136.806 45.265 135.588 45.265ZM120.113 59.7752C121.243 59.6113 122.291 59.445 123.285 59.2787L123.285 85.6511 115.95 85.6511 115.951 60.3168C117.385 60.1456 118.776 59.9683 120.113 59.7751ZM97.591 61.7588C100.038 61.645 102.431 61.5068 104.747 61.3466L104.747 85.6537 97.591 85.6537ZM95.567 85.6535 89.1428 85.6535 89.1428 62.0496C91.3184 61.9995 93.4623 61.9322 95.567 61.8466ZM106.769 61.2012C109.255 61.0092 111.644 60.7903 113.925 60.5457L113.925 85.6536 106.769 85.6536ZM87.1213 62.0902 87.1213 85.6538 79.9661 85.6538 79.9661 62.155 80.1459 62.155C82.4976 62.1526 84.8235 62.1318 87.1214 62.0902ZM53.341 61.1865C55.6487 61.3663 58.0421 61.5204 60.4975 61.6512L60.4975 85.6537 53.341 85.6537ZM51.3195 85.6536 44.8966 85.6536 44.8966 60.3803C46.945 60.6164 49.0889 60.8292 51.3195 61.0199ZM62.5215 61.7491C64.8573 61.8591 67.2457 61.9496 69.678 62.0132L69.678 85.6513 62.5215 85.6513ZM71.6995 62.0658C73.754 62.1074 75.838 62.1343 77.9415 62.1465L77.9415 85.6537 71.6995 85.6537ZM42.8738 60.136 42.8738 85.6513 35.7173 85.6513 35.7173 59.0525C37.0687 59.2983 38.5411 59.538 40.1798 59.7752 41.053 59.9012 41.9556 60.0198 42.874 60.136ZM28.7415 85.6538 28.7415 57.4273C30.0916 57.8468 31.7291 58.2614 33.7005 58.6649L33.6956 58.6649 33.6956 85.6538ZM131.548 85.6538 125.307 85.6538 125.308 58.9191C127.87 58.4348 129.916 57.9347 131.549 57.4272Z" fill="#FFFFFF" fill-rule="nonzero" fill-opacity="1" transform="matrix(1.01392 0 0 1 142.609 295.623)"/></g></g></g></g></g></svg>