<svg width="953" height="1357" xmlns="http://www.w3.org/2000/svg" xmlns:xlink="http://www.w3.org/1999/xlink" xml:space="preserve" overflow="hidden"><g transform="translate(-128 -297)"><g><path d="M606.127 1639 137 706.518 340.704 305.428 871.551 304 1072 708.553 606.127 1639Z" stroke="#1F4E79" stroke-width="10.3125" stroke-linecap="butt" stroke-linejoin="miter" stroke-miterlimit="8" stroke-opacity="1" fill="#2E75B6" fill-rule="evenodd" fill-opacity="1"/><g><g><g><path d="M733.657 244.919 723.725 244.919C717.134 244.919 711.8 250.253 711.8 256.844L711.8 294.078C698.963 298.458 677.444 303.713 641.506 308.583 585.128 316.213 511.3 320.414 433.668 320.414 356.022 320.414 282.214 316.219 225.848 308.583 189.896 303.706 168.384 298.458 155.54 294.078L155.54 256.844C155.54 250.26 150.2 244.919 143.615 244.919L133.683 244.919C127.099 244.919 121.765 250.253 121.765 256.844L121.765 610.484C121.765 617.075 127.099 622.409 133.683 622.409L143.615 622.409C150.199 622.409 155.54 617.075 155.54 610.484L155.54 544.921 155.679 544.921C159.96 517.36 282.292 495.253 432.665 495.253 583.039 495.253 705.35 517.362 709.635 544.921L711.819 544.921 711.819 610.484C711.819 617.075 717.153 622.409 723.744 622.409L733.676 622.409C740.267 622.409 745.6 617.075 745.6 610.484L745.6 256.844C745.58 250.266 740.247 244.926 733.656 244.926ZM649.922 323.44C656.037 322.553 661.708 321.653 667.088 320.753L667.088 463.453 627.397 463.453 627.404 326.371C635.166 325.444 642.69 324.485 649.922 323.439ZM528.059 334.173C541.3 333.558 554.25 332.81 566.782 331.943L566.782 463.467 528.059 463.467ZM517.108 463.466 482.347 463.466 482.347 335.747C494.119 335.475 505.719 335.112 517.108 334.648ZM577.721 331.156C591.174 330.117 604.096 328.933 616.444 327.609L616.444 463.467 577.721 463.467ZM471.408 335.967 471.408 463.468 432.692 463.468 432.692 336.317 433.665 336.317C446.389 336.304 458.975 336.192 471.409 335.967ZM288.625 331.077C301.112 332.049 314.062 332.883 327.348 333.591L327.348 463.467 288.625 463.467ZM277.687 463.467 242.933 463.467 242.933 326.715C254.017 327.992 265.617 329.143 277.687 330.175ZM338.3 334.121C350.939 334.716 363.863 335.206 377.023 335.55L377.023 463.454 338.3 463.454ZM387.962 335.835C399.079 336.06 410.355 336.205 421.737 336.271L421.737 463.467 387.962 463.467ZM231.988 325.392 231.988 463.454 193.264 463.454 193.264 319.53C200.576 320.86 208.544 322.157 217.411 323.44 222.136 324.122 227.019 324.764 231.989 325.392ZM155.519 463.468 155.519 310.736C162.824 313.006 171.684 315.249 182.352 317.433L182.325 317.433 182.325 463.468ZM711.796 463.468 678.028 463.468 678.035 318.808C691.898 316.187 702.969 313.481 711.803 310.735Z" fill="#FFFFFF" fill-rule="nonzero" fill-opacity="1" transform="matrix(1.00041 0 0 1 167.795 260.292)"/></g></g></g></g></g></svg>