<svg width="151" height="257" xmlns="http://www.w3.org/2000/svg" xmlns:xlink="http://www.w3.org/1999/xlink" xml:space="preserve" overflow="hidden"><g transform="translate(-472 -297)"><g><path d="M544.689 551 474 433.153 474 339.731 544.861 304 617 339.359C616.75 370.623 616.501 401.888 616.251 433.153L544.689 551Z" stroke="#496AB1" stroke-width="2.29167" stroke-linecap="butt" stroke-linejoin="miter" stroke-miterlimit="8" stroke-opacity="1" fill="#628FEE" fill-rule="evenodd" fill-opacity="1"/><g><g><g><path d="M129.521 43.2386 127.768 43.2386C126.604 43.2386 125.663 44.1802 125.663 45.3437L125.663 51.9172C123.396 52.6905 119.597 53.6181 113.253 54.4779 103.3 55.8248 90.2659 56.5667 76.5607 56.5667 62.8529 56.5667 49.8227 55.826 39.8716 54.4779 33.5246 53.6169 29.7268 52.6905 27.4593 51.9172L27.4593 45.3437C27.4593 44.1814 26.5166 43.2386 25.3542 43.2386L23.6007 43.2386C22.4383 43.2386 21.4967 44.1802 21.4967 45.3437L21.4967 107.776C21.4967 108.94 22.4383 109.881 23.6007 109.881L25.3542 109.881C26.5165 109.881 27.4593 108.94 27.4593 107.776L27.4593 96.2016 27.4838 96.2016C28.2397 91.3358 49.8364 87.4331 76.3837 87.4331 102.931 87.4331 124.524 91.3361 125.281 96.2016L125.666 96.2016 125.666 107.776C125.666 108.94 126.608 109.881 127.771 109.881L129.525 109.881C130.688 109.881 131.63 108.94 131.63 107.776L131.63 45.3437C131.626 44.1825 130.685 43.2398 129.521 43.2398ZM114.739 57.1008C115.818 56.9443 116.819 56.7854 117.769 56.6265L117.769 81.819 110.762 81.819 110.763 57.6182C112.134 57.4547 113.462 57.2853 114.739 57.1007ZM93.2247 58.9956C95.5623 58.887 97.8485 58.755 100.061 58.602L100.061 81.8215 93.2247 81.8215ZM91.2913 81.8214 85.1545 81.8214 85.1545 59.2735C87.2328 59.2256 89.2807 59.1613 91.2913 59.0795ZM101.992 58.463C104.367 58.2796 106.649 58.0705 108.828 57.8368L108.828 81.8214 101.992 81.8214ZM83.2235 59.3123 83.2235 81.8216 76.3884 81.8216 76.3884 59.3742 76.5601 59.3742C78.8066 59.3719 81.0284 59.352 83.2235 59.3123ZM50.9545 58.449C53.1589 58.6207 55.4452 58.7679 57.7908 58.8929L57.7908 81.8215 50.9545 81.8215ZM49.0235 81.8214 42.8879 81.8214 42.8879 57.6789C44.8446 57.9044 46.8926 58.1076 49.0235 58.2899ZM59.7242 58.9864C61.9555 59.0915 64.2371 59.178 66.5605 59.2387L66.5605 81.8192 59.7242 81.8192ZM68.4916 59.289C70.4542 59.3287 72.4449 59.3544 74.4543 59.3661L74.4543 81.8215 68.4916 81.8215ZM40.9556 57.4455 40.9556 81.8192 34.1193 81.8192 34.1193 56.4104C35.4102 56.6453 36.8167 56.8742 38.3822 57.1009 39.2163 57.2212 40.0784 57.3345 40.9558 57.4455ZM27.4556 81.8216 27.4556 54.858C28.7453 55.2587 30.3095 55.6547 32.1928 56.0402L32.1881 56.0402 32.1881 81.8216ZM125.662 81.8216 119.701 81.8216 119.702 56.283C122.149 55.8204 124.104 55.3426 125.663 54.8578Z" fill="#FFFFFF" fill-rule="nonzero" fill-opacity="1" transform="matrix(1 0 0 1.00381 468.846 307.406)"/></g></g></g></g></g></svg>