<svg width="184" height="262" xmlns="http://www.w3.org/2000/svg" xmlns:xlink="http://www.w3.org/1999/xlink" xml:space="preserve" overflow="hidden"><g transform="translate(-132 -572)"><g><path d="M224.303 827 137 653.775 174.909 579.265 273.697 579 311 654.153 224.303 827Z" stroke="#D28F32" stroke-width="2.29167" stroke-linecap="butt" stroke-linejoin="miter" stroke-miterlimit="8" stroke-opacity="1" fill="#E59D37" fill-rule="evenodd" fill-opacity="1"/><g><g><g><path d="M74.5001 85.8235C72.563 85.8235 70.7748 85.5257 68.8378 85.0789L33.3746 75.6913 33.3746 101.17C33.3746 102.958 34.4181 104.746 36.0562 105.491 41.1217 107.875 53.6377 112.793 74.4995 112.793 95.3595 112.793 107.876 108.025 112.943 105.491 114.582 104.598 115.624 102.958 115.624 101.17L115.624 75.6925 80.1611 85.0801C78.2241 85.5257 76.4358 85.8236 74.4988 85.8236Z" fill="#FFFFFF" fill-rule="nonzero" fill-opacity="1" transform="matrix(1.00671 0 0 1 149 579)"/><path d="M143.337 54.0882 77.7769 36.6558C75.542 36.0601 73.3072 36.0601 71.0722 36.6558L5.51213 54.0882C2.97939 54.6839 2.97939 58.2602 5.51213 59.005L71.0722 76.4374C73.3071 77.0331 75.5419 77.0331 77.7769 76.4374L127.395 63.3257 127.395 81.355C124.714 82.3985 122.627 84.9313 122.627 88.0597 122.627 92.0827 125.906 95.2111 129.779 95.2111 133.802 95.2111 136.93 91.9325 136.93 88.0597 136.93 84.9301 134.993 82.3974 132.163 81.355L132.163 61.9852 143.188 59.0058C145.871 58.2601 145.871 54.6837 143.338 54.0882Z" fill="#FFFFFF" fill-rule="nonzero" fill-opacity="1" transform="matrix(1.00671 0 0 1 149 579)"/></g></g></g></g></g></svg>