<svg width="151" height="257" xmlns="http://www.w3.org/2000/svg" xmlns:xlink="http://www.w3.org/1999/xlink" xml:space="preserve" overflow="hidden"><g transform="translate(-472 -568)"><g><path d="M544.689 819 474 700.676 474 606.876 544.861 571 617 606.502C616.75 637.893 616.501 669.284 616.251 700.676L544.689 819Z" stroke="#D28F32" stroke-width="2.29167" stroke-linecap="butt" stroke-linejoin="miter" stroke-miterlimit="8" stroke-opacity="1" fill="#E59D37" fill-rule="evenodd" fill-opacity="1"/><g><g><g><path d="M546 664.791C544.154 664.791 542.45 664.508 540.604 664.082L506.807 655.135 506.807 679.417C506.807 681.121 507.801 682.825 509.362 683.535 514.19 685.807 526.118 690.494 545.999 690.494 565.879 690.494 577.808 685.95 582.637 683.535 584.199 682.683 585.192 681.121 585.192 679.417L585.192 655.136 551.395 664.083C549.549 664.508 547.845 664.791 545.999 664.791Z" fill="#FFFFFF" fill-rule="nonzero" fill-opacity="1"/><path d="M611.603 634.547 549.123 617.934C546.993 617.366 544.863 617.366 542.733 617.934L480.253 634.547C477.839 635.115 477.839 638.523 480.253 639.233L542.733 655.846C544.863 656.414 546.993 656.414 549.123 655.846L596.41 643.351 596.41 660.533C593.854 661.527 591.866 663.941 591.866 666.923 591.866 670.757 594.991 673.738 598.682 673.738 602.516 673.738 605.497 670.613 605.497 666.923 605.497 663.94 603.651 661.526 600.953 660.533L600.953 642.073 611.461 639.234C614.018 638.523 614.018 635.115 611.604 634.547Z" fill="#FFFFFF" fill-rule="nonzero" fill-opacity="1"/></g></g></g></g></g></svg>