<?xml version="1.0" standalone="no"?>
<!DOCTYPE svg PUBLIC "-//W3C//DTD SVG 20010904//EN"
 "http://www.w3.org/TR/2001/REC-SVG-20010904/DTD/svg10.dtd">
<svg version="1.0" xmlns="http://www.w3.org/2000/svg"
 width="1000.000000pt" height="1000.000000pt" viewBox="0 0 1000.000000 1000.000000"
 preserveAspectRatio="xMidYMid meet">

<g transform="translate(0.000000,1000.000000) scale(0.100000,-0.100000)"
fill="#000000" stroke="none">
<path d="M0 8517 l0 -1484 178 -7 c271 -10 808 -57 950 -82 l32 -6 0 951 0
951 3835 0 3835 0 2 -938 3 -938 210 58 c253 69 452 116 725 172 l205 42 3
1382 2 1382 -4990 0 -4990 0 0 -1483z"/>
<path d="M9700 5890 c-1437 -309 -2744 -858 -3950 -1659 -96 -64 -178 -117
-181 -119 -3 -1 -68 34 -145 79 -1519 890 -3309 1430 -5069 1529 -99 5 -219
12 -267 15 l-88 5 0 -574 0 -574 23 -6 c12 -3 54 -6 92 -6 97 0 442 -27 665
-51 1037 -113 2077 -392 3045 -819 185 -82 604 -289 780 -385 1434 -787 2657
-1893 3593 -3249 l52 -76 865 0 865 0 0 616 c0 583 -1 616 -17 609 -10 -4 -54
-20 -98 -35 -209 -72 -447 -170 -669 -274 -65 -31 -122 -56 -126 -56 -4 0 -70
84 -146 187 -160 216 -332 434 -482 612 -82 96 -102 125 -91 133 26 17 340
169 474 228 299 132 641 257 970 355 l180 53 3 597 c2 565 1 596 -15 591 -10
-3 -74 -19 -143 -36 -768 -192 -1633 -539 -2286 -916 l-31 -18 -158 143 c-174
157 -437 378 -614 517 -63 49 -115 94 -115 99 -1 6 74 55 166 110 964 580
2041 1006 3128 1238 l65 13 3 587 2 587 -27 -1 c-16 0 -129 -22 -253 -49z"/>
<path d="M0 2892 l0 -579 134 -6 c801 -39 1742 -251 2531 -572 891 -362 1754
-906 2428 -1531 65 -60 142 -130 171 -157 l53 -47 772 2 773 3 -113 135 c-346
416 -760 830 -1184 1186 -1308 1097 -2906 1811 -4593 2054 -284 41 -804 90
-954 90 -17 0 -18 -34 -18 -578z"/>
<path d="M0 600 l0 -600 1778 0 c1732 1 1776 1 1755 19 -37 31 -349 223 -483
299 -845 472 -1784 766 -2735 856 -88 8 -195 18 -237 21 l-78 6 0 -601z"/>
</g>
</svg>
